<?xml version="1.0" encoding="UTF-8"?>
<!DOCTYPE svg PUBLIC "-//W3C//DTD SVG 1.1//EN" "http://www.w3.org/Graphics/SVG/1.1/DTD/svg11.dtd">
<!-- Creator: CorelDRAW -->
<svg xmlns="http://www.w3.org/2000/svg" xml:space="preserve" width="38.2878mm" height="11.2132mm" version="1.1" style="shape-rendering:geometricPrecision; text-rendering:geometricPrecision; image-rendering:optimizeQuality; fill-rule:evenodd; clip-rule:evenodd"
viewBox="0 0 3.3138 0.9705"
 xmlns:xlink="http://www.w3.org/1999/xlink"
 xmlns:xodm="http://www.corel.com/coreldraw/odm/2003">
 <defs>
  <style type="text/css">
   <![CDATA[
    .fil2 {fill:#003061}
    .fil1 {fill:#003263}
    .fil0 {fill:#FA4F02}
   ]]>
  </style>
 </defs>
 <g id="Слой_x0020_1">
  <metadata id="CorelCorpID_0Corel-Layer"/>
  <g id="_105553215038496">
   <path class="fil0" d="M0.6967 0.3432c-0.0002,-0.006 -0.0008,-0.0022 -0.0059,-0.0096l-0.0735 -0.1064c-0.0051,-0.0063 -0.0055,-0.0095 -0.0109,-0.0161l-0.0107 -0.0163c-0.008,-0.0135 -0.0208,-0.03 -0.0285,-0.0423 -0.0019,-0.003 -0.0072,-0.0094 -0.001,-0.0093 0.0057,0.0001 0.0494,0.0129 0.0559,0.0161 0.0033,0.0017 0.0026,0.0016 0.0066,0.0024 0.0053,0.001 0.0023,-0.0005 0.007,0.002l0.0936 0.0581c0.011,0.0109 0.0122,0.008 0.0229,0.0221 0.0029,0.0039 0.0107,0.0097 0.0176,0.0184 0.0028,0.0035 0.005,0.0066 0.0082,0.0098 0.0033,0.0033 0.0053,0.006 0.0083,0.0097l0.0183 0.0267c0.0011,0.0017 0.0022,0.0036 0.0034,0.0056 0.0023,0.0039 0.0046,0.0077 0.0065,0.0115l0.0117 0.0243c0.0012,0.0042 0.0002,0.0028 0.002,0.007l0.0052 0.0128c0.0053,0.0117 0.0024,0.0075 0.0046,0.0134 0.0016,0.0044 0.0017,0.0021 0.0031,0.0059 0.0017,0.0046 0.0012,0.0095 0.0025,0.0142 0.0017,0.006 0.0028,0.0056 0.0037,0.0143 0.0006,0.0058 0.0015,0.0096 0.0034,0.0146 0.0016,0.0043 0.0025,0.0103 0.0029,0.0151 0.0005,0.0057 -0.0003,0.0121 0.0001,0.0179 0.0016,0.0189 0.0015,0.0708 -0.0031,0.0844 -0.0019,0.0057 -0.0021,0.0096 -0.003,0.015l-0.0172 0.0548c-0.0014,0.0028 -0.0019,0.0019 -0.0033,0.0058 -0.0015,0.0042 -0.0011,0.0046 -0.0005,0.0072 -0.0052,0.0023 -0.0024,-0.0007 -0.0053,0.0051 -0.0117,0.0238 -0.0349,0.0595 -0.0522,0.0775 -0.0036,0.0038 -0.0068,0.0064 -0.0103,0.0103l-0.042 0.0377c-0.0041,0.0032 -0.007,0.0054 -0.0109,0.0084 -0.0002,0.0002 -0.0005,0.0004 -0.0007,0.0006 -0.0072,0.0056 -0.0444,0.0265 -0.0499,0.0285 -0.0136,0.0051 -0.0333,0.015 -0.0436,0.0169 -0.0117,0.0021 -0.0082,0.0038 -0.0143,0.005 -0.0103,0.002 -0.0073,-0.0004 -0.0168,0.0038 -0.0019,0.0008 -0.0234,0.008 -0.0158,-0.004 0.0038,-0.0059 0.0075,-0.0065 0.0211,-0.0293l0.1967 -0.2827c0.0028,-0.0041 0.0055,-0.0066 0.0083,-0.011 0.0013,-0.002 0.0007,-0.0014 0.002,-0.0031 0.0094,-0.0123 0.0017,-0.0098 -0.0054,-0.0213l-0.0524 -0.0774c-0.0017,-0.0025 -0.0021,-0.0037 -0.0041,-0.0062l-0.031 -0.0449c-0.0023,-0.0028 0.0001,-0.0009 -0.0033,-0.003zm-0.2276 -0.3432l0.0651 0c0.0006,0.0001 0.0012,0.0002 0.0016,0.0002 0.0038,0.0008 0.0016,0.0005 0.0029,0.001l0.0037 0.0015c0.009,0.0027 0.0193,0.001 0.0281,0.0028 0.0045,0.0009 0.009,0.003 0.0146,0.0034 0.0162,0.0012 0.0367,0.0093 0.0436,0.0104 0.0069,0.001 0.0089,0.0006 0.0144,0.0036 0.0057,0.003 0.008,0.0021 0.0134,0.0045 0.0024,0.0011 0.0034,0.002 0.0062,0.0028l0.0199 0.0071c0.0021,0.0008 0.0034,0.0019 0.0061,0.0029l0.0305 0.0133c0.0003,0.0001 0.0006,0.0003 0.0008,0.0004l0.0346 0.0194c0.0189,0.0102 0.0346,0.0257 0.0528,0.0372l0.0285 0.0254c0.0064,0.0062 0.0117,0.0118 0.018,0.018l0.0558 0.0701c0.0141,0.0223 0.0289,0.045 0.0383,0.0697 0.0016,0.0042 0.0017,0.0028 0.0032,0.0058l0.0071 0.0199c0.0026,0.0092 0.008,0.0161 0.0104,0.0256l0.0079 0.0281c0.0025,0.0063 0.0025,0.0071 0.003,0.015 0.0004,0.007 0.0041,0.0152 0.0052,0.0308 0.0008,0.0111 0.005,0.0192 0.005,0.0309 0,0.0298 0.003,0.0756 -0.0039,0.1028 -0.0019,0.0075 -0.0012,0.017 -0.003,0.0252 -0.0012,0.0056 -0.0024,0.0046 -0.0033,0.0108 -0.0008,0.0056 -0.0008,0.007 -0.0026,0.0115 -0.0038,0.0098 -0.0051,0.0235 -0.0088,0.0336 -0.0016,0.0045 -0.0027,0.0039 -0.0045,0.0096l-0.0263 0.0611c-0.0082,0.0161 -0.0255,0.0463 -0.0355,0.0596l-0.0631 0.0706c-0.0144,0.0155 -0.0257,0.023 -0.0414,0.0357l-0.0421 0.0286c-0.0028,0.0018 -0.006,0.0035 -0.009,0.0052 -0.0037,0.0021 -0.0064,0.0024 -0.0099,0.0042l-0.0185 0.0098c-0.0049,0.0032 -0.0126,0.0077 -0.0178,0.0092l-0.0514 0.0193c-0.0058,0.0028 -0.0058,0.0008 -0.0115,0.0027 -0.004,0.0013 -0.0051,0.003 -0.0098,0.0043 -0.0042,0.0012 -0.0079,0.0007 -0.0123,0.0018 -0.0036,0.0009 -0.006,0.0025 -0.0106,0.0036 -0.0038,0.0009 -0.0078,0.0006 -0.0127,0.0015 -0.0037,0.0006 -0.0075,0.0019 -0.0113,0.0028 -0.0088,0.0023 -0.0168,0.0012 -0.0251,0.0031 -0.0079,0.0018 -0.0129,0.0038 -0.0232,0.0038l-0.072 0c-0.0138,0 -0.0244,-0.0025 -0.0378,-0.0047 -0.007,-0.0012 -0.0143,-0.0003 -0.0203,-0.0016 -0.0068,-0.0015 -0.0083,-0.0031 -0.0164,-0.0041 -0.0078,-0.001 -0.0114,-0.0014 -0.0181,-0.0038 -0.0053,-0.0019 -0.0116,-0.0013 -0.0169,-0.0037 -0.0029,-0.0013 -0.0028,-0.002 -0.007,-0.0032l-0.0117 -0.0037c-0.0021,-0.0008 -0.0021,-0.0005 -0.004,-0.0012 -0.0043,-0.0015 -0.0053,-0.0026 -0.0053,-0.0075l0.0578 -0.0849c0.006,-0.0093 0.0114,-0.0192 0.0185,-0.0278 0.0075,-0.0091 0.0124,-0.0185 0.0196,-0.028l0.0138 -0.0209c0.0063,-0.0098 0.0137,-0.018 0.0193,-0.0282l0.0295 -0.0412c0.009,-0.011 0.0146,-0.0243 0.0236,-0.0356l0.0195 -0.0281c0.0036,-0.0048 0.0061,-0.0086 0.0097,-0.0134 0.0069,-0.0092 0.0123,-0.0181 0.0191,-0.0272l0.0436 -0.0631c0.0017,-0.0026 0.0026,-0.0037 0.0046,-0.0069 0.0023,-0.0036 0.0026,-0.0034 0.0047,-0.0069l0.0135 -0.0212c0.0041,-0.0059 0.0092,-0.011 0.0092,-0.0178 0,-0.0035 -0.0229,-0.033 -0.0252,-0.0365l-0.0724 -0.1063c-0.0043,-0.0077 -0.0101,-0.0139 -0.0147,-0.0213 -0.0024,-0.0039 -0.0023,-0.0034 -0.0049,-0.0067 -0.0055,-0.0068 -0.0093,-0.0146 -0.0143,-0.0217 -0.0081,-0.0114 -0.0174,-0.0227 -0.0241,-0.035l-0.0299 -0.0434c-0.0094,-0.0107 -0.0154,-0.0235 -0.0245,-0.0346l-0.0336 -0.05c-0.0062,-0.0095 -0.0148,-0.0178 -0.0197,-0.0279 -0.0041,-0.0083 -0.0101,-0.0135 -0.0149,-0.0211 -0.0097,-0.0155 -0.0126,-0.0143 -0.0243,-0.0348 -0.0038,-0.0067 -0.0075,-0.0071 -0.0075,-0.0157 0.0057,-0.0013 0.0078,-0.0032 0.0134,-0.0046 0.006,-0.0015 0.0092,-0.0013 0.0145,-0.0035 0.0061,-0.0026 0.0077,-0.0021 0.014,-0.004 0.0056,-0.0017 0.0067,-0.0035 0.0136,-0.0043 0.0093,-0.001 0.0071,-0.0009 0.0145,-0.0035 0.0063,-0.0022 0.0088,-0.0012 0.0156,-0.0024 0.0054,-0.0009 0.009,-0.0024 0.0146,-0.0034 0.0093,-0.0016 0.023,-0.0003 0.0325,-0.0035l0.0164 -0.0016 0.0012 0z"/>
   <path class="fil0" d="M2.3484 0.3458c0.0041,-0.0018 0.0211,-0.0045 0.0281,-0.0037 0.0035,0.0004 0.0106,0.0015 0.0143,0.0024 0.0071,0.0017 0.0071,0.0063 0.0129,0.0038 0.0002,0.0004 0.0005,0.0005 0.0006,0.0011 0.0004,0.002 0.0077,0.0072 0.0106,0.0109 0.0087,0.0107 0.0063,0.0133 0.011,0.0237 0.0051,0.0114 0,0.0165 -0.0026,0.0277 -0.0016,0.0069 -0.0032,0.0099 -0.0061,0.0157l-0.0059 0.0082c-0.0002,0.0002 -0.0005,0.0005 -0.0007,0.0006 -0.0002,0.0002 -0.0005,0.0004 -0.0007,0.0006 -0.0036,0.0029 -0.014,0.0095 -0.0188,0.0108 -0.0099,0.0027 -0.0304,0.0035 -0.0396,-0.0009 -0.0156,-0.0075 -0.0163,-0.0082 -0.0252,-0.021 -0.0105,-0.0151 -0.0074,-0.0213 -0.0075,-0.0388 -0.0002,-0.0189 0.0093,-0.0258 0.0218,-0.036 0.0026,-0.0021 0.0043,-0.0026 0.0078,-0.0051zm0.5853 -0.144l-0.0677 0.0138c-0.0066,0.0025 -0.0093,0.0026 -0.0176,0.003 -0.0073,0.0003 -0.0096,0.0027 -0.0167,0.0039 -0.0054,0.0009 -0.0138,0.001 -0.0183,0.0023 -0.0058,0.0017 -0.01,0.0032 -0.0167,0.0039 -0.0184,0.0018 -0.014,0.0029 -0.0342,0.0056 -0.0062,0.0008 -0.01,0.004 -0.0159,0.0047 -0.0108,0.0013 -0.0413,0.0061 -0.0524,0.0093 -0.0124,0.0037 -0.0149,-0.0007 -0.031,0.0101 0,0.0129 -0.0001,0.0257 0,0.0386 0.0001,0.0126 -0.0027,0.0235 -0.0007,0.0367 0.0015,0.0099 0.0008,0.0434 0.0007,0.0571 -0.0001,0.0113 -0.0008,0.0098 0.0039,0.0167 0.0172,0 0.0079,-0.002 0.024,-0.0043 0.0025,-0.0003 0.0093,-0.0006 0.0128,-0.0014 0.0052,-0.0011 0.0052,-0.0028 0.0103,-0.0033 0.03,-0.0022 0.0158,-0.0024 0.0389,-0.0066 0.0077,-0.0014 0.0034,-0.0035 0.0117,-0.0037 0.0056,0.024 -0.0035,0.3822 0.0026,0.3882 0.0072,0.0035 0.0753,0.0013 0.09,0.0013 0.0212,0 0.074,0.0024 0.09,-0.0013 0.0039,-0.0168 0.0026,-0.0993 0.0026,-0.1234 -0,-0.0078 -0.0013,-0.0094 -0.0014,-0.0167 -0.0001,-0.0077 0.0013,-0.0093 0.0014,-0.0167 0.0011,-0.0882 -0.0001,-0.184 -0.0001,-0.2726 0,-0.0237 0.0007,-0.0485 0,-0.072 -0.0002,-0.0067 -0.0014,-0.0088 -0.0014,-0.0166l0.0006 -0.034c-0.0006,-0.0064 -0.0005,-0.0121 -0.0005,-0.0187 -0.0061,-0.0041 -0.005,-0.0039 -0.015,-0.0039zm-0.5156 0.3663c0.0043,-0.0019 0.0049,-0.0023 0.0083,-0.0055 0.0047,-0.0044 0.0024,-0.0035 0.0107,-0.0035 0,0.0107 -0.0059,0.022 -0.0092,0.0307 -0.0065,0.0174 -0.0221,0.0332 -0.0402,0.0395 -0.0228,0.0079 -0.0498,0.0082 -0.0727,0.0057l-0.0254 -0.0055c-0.0044,-0.0011 -0.0035,-0.0018 -0.0069,-0.0034 -0.0149,-0.0074 -0.0221,-0.0084 -0.0408,-0.0196 -0.0153,-0.0091 -0.0157,-0.0133 -0.0266,0.0086l-0.0047 0.0081c-0.0014,0.0021 -0.0013,0.0023 -0.0022,0.0042l-0.0421 0.0684c-0.0023,0.0047 -0.0014,0.0043 -0.0044,0.0084 -0.002,0.0027 -0.0046,0.0048 -0.006,0.0069 -0.0076,0.0111 0.0088,0.0168 0.0202,0.0242l0.0272 0.0152c0.0017,0.0009 0.0008,0.0003 0.0025,0.0013l0.0331 0.0144c0.0043,0.0013 0.0067,0.0007 0.0114,0.0028 0.0109,0.0047 0.0098,0.0024 0.0217,0.0065 0.0074,0.0025 0.0157,0.0032 0.0235,0.0048 0.0086,0.0017 0.0156,0.0024 0.0264,0.0024l0.0421 0.0004c0.0092,-0.0012 0.0241,0.0004 0.0317,-0.0005 0.0049,-0.0006 0.0071,-0.0025 0.0116,-0.0038 0.0048,-0.0014 0.0082,-0.0006 0.0139,-0.0015 0.0045,-0.0007 0.0082,-0.0037 0.0122,-0.0045 0.0086,-0.0017 0.0128,-0.0019 0.0237,-0.0072l0.0105 -0.0049c0.0024,-0.0009 0.003,-0.0014 0.0051,-0.0026 0.0022,-0.0012 0.0037,-0.0015 0.0062,-0.0028l0.0381 -0.0249c0.0057,-0.0056 0.0104,-0.0091 0.016,-0.0148 0.0057,-0.0057 0.0103,-0.0103 0.0152,-0.0169l0.0297 -0.0487c0.0023,-0.0046 0.0025,-0.0069 0.0043,-0.0112 0.0022,-0.0053 0.0025,-0.0041 0.0042,-0.0113 0.0012,-0.0052 0.0032,-0.0078 0.0045,-0.0122 0.0059,-0.0189 0.0055,-0.0246 0.0095,-0.0381 0.0008,-0.0028 0.0018,-0.0113 0.0022,-0.0145 0.0021,-0.0208 0.0054,-0.0366 0.0053,-0.0576 -0.0001,-0.0253 0.0013,-0.0523 -0.0027,-0.0757l-0.0039 -0.027c-0.0015,-0.0096 -0.0131,-0.0554 -0.0171,-0.0626 -0.0015,-0.0026 -0.0012,-0.0013 -0.0028,-0.0049 -0.0009,-0.0022 -0.0011,-0.0035 -0.0021,-0.0056l-0.0133 -0.0252c-0.0033,-0.0054 -0.0034,-0.0073 -0.0092,-0.0152 -0.014,-0.0192 -0.0262,-0.0335 -0.0454,-0.0485 -0.0017,-0.0013 -0.0025,-0.0021 -0.0042,-0.0035l-0.031 -0.0178c-0.0077,-0.0033 -0.0216,-0.0103 -0.0281,-0.0118 -0.0063,-0.0014 -0.0065,-0.0017 -0.0118,-0.0036 -0.005,-0.0017 -0.0074,-0.0015 -0.0135,-0.0019 -0.0056,-0.0004 -0.0084,-0.002 -0.0135,-0.0032 -0.0183,-0.0043 -0.0676,-0.0035 -0.0881,0.0021 -0.0102,0.0028 -0.0125,-0.0011 -0.0282,0.004 -0.0038,0.0012 -0.0081,0.0024 -0.012,0.0034 -0.0086,0.0023 -0.0353,0.0145 -0.0435,0.0195 -0.0039,0.0023 -0.0054,0.0037 -0.0091,0.0063 -0.0211,0.0145 -0.0148,0.0107 -0.0279,0.0236 -0.023,0.0227 -0.0304,0.0363 -0.0426,0.0641l-0.0138 0.0505c-0.0016,0.0126 -0.0014,0.0512 0.0016,0.0608 0.0043,0.0138 0.0029,0.0173 0.0064,0.0245 0.0048,0.0097 -0.0006,0.0032 0.0066,0.0165 0.0019,0.0036 0.0032,0.0092 0.0076,0.0168l0.0125 0.0183c0.0031,0.0034 0.0048,0.0059 0.0074,0.0093 0.0051,0.0068 0.0248,0.0242 0.0329,0.0301 0.0067,0.0048 0.0121,0.0073 0.0193,0.0116 0.0084,0.005 0.024,0.0124 0.0332,0.0143 0.0065,0.0013 0.0066,0.0015 0.012,0.0035l0.0556 0.0074c0.0366,-0.0001 0.0307,-0.0043 0.0425,-0.0051 0.0094,-0.0006 0.007,0.001 0.0141,-0.0026 0.0052,-0.0026 0.0052,-0.001 0.0166,-0.0066 0.0036,-0.0018 0.0029,-0.0001 0.0055,-0.0024zm0.6103 -0.3072l0 0.1414c0,0.0099 0.0142,0.0023 0.016,0.0019 0.0091,-0.0023 0.0085,0.0007 0.026,-0.0048 0.0034,-0.0011 0.0108,-0.0019 0.0146,-0.0021 0.0064,-0.0004 0.0305,-0.0074 0.0399,-0.0067 0.007,0.0005 0.0052,0.004 0.0051,0.0117 -0.0014,0.0806 -0,0.1714 -0,0.2533l-0.0001 0.1106c-0.0001,0.0059 -0.0006,0.0115 0.0052,0.0115l0.1697 0c0.0044,0 0.005,-0.001 0.009,-0.0013l0 -0.5733c-0.0123,-0.0003 -0.0071,-0.0043 -0.0284,0.0025l-0.0343 0.0068c-0.0167,0.0019 -0.0214,0.0046 -0.0351,0.006 -0.0094,0.001 -0.009,0.0026 -0.0165,0.004 -0.0064,0.0012 -0.0125,0.0004 -0.0191,0.0015 -0.0058,0.001 -0.0089,0.0041 -0.0171,0.0048 -0.0098,0.0008 -0.0099,0.0014 -0.0169,0.0037 -0.0072,0.0023 -0.0109,0.0007 -0.0187,0.0018 -0.0061,0.0009 -0.01,0.004 -0.0159,0.0047 -0.0187,0.0023 -0.035,0.0046 -0.053,0.0099 -0.008,0.0024 -0.0303,0.0043 -0.0303,0.0121z"/>
   <path class="fil1" d="M0.2455 0.6838l-0.0418 -0.0328c-0.0035,-0.0034 -0.0057,-0.0055 -0.0088,-0.0092l-0.0452 -0.0756c-0.0011,-0.0031 -0.0009,-0.005 -0.002,-0.0082 -0.0026,-0.0073 -0.003,-0.0035 -0.0038,-0.0142 -0.0011,-0.0136 -0.0063,-0.0145 -0.0063,-0.0502 0,-0.0131 0.0006,-0.0231 0.0012,-0.036 0.0003,-0.0067 0.0027,-0.0083 0.0041,-0.0152l0.0069 -0.0317c0.0013,-0.0042 0.0017,-0.0027 0.0032,-0.0058 0.0018,-0.0037 0.0008,-0.0042 0.0023,-0.008l0.0129 -0.0256c0.008,-0.0134 0.0145,-0.0219 0.0239,-0.0339 0.0018,-0.0023 0.0023,-0.0028 0.0042,-0.0048 0.0103,-0.0113 0.0352,-0.0349 0.0493,-0.0382 0.0123,0.0082 0.001,0.0074 0.0156,0.0217 0.0002,0.0002 0.0005,0.0004 0.0007,0.0006l0.0097 0.0121c0.0015,0.0024 0.0023,0.0046 0.0037,0.0066l0.0036 0.0041c0.0002,0.0003 0.0008,0.0012 0.001,0.0015l0.032 0.0489c0.0021,0.0043 0.0006,0.002 0.0033,0.0057l0.019 0.0273c0.0032,0.0064 0.0067,0.0097 0.0116,0.018 0.0009,0.0015 0.0008,0.0012 0.0021,0.0031l0.0249 0.0368c0.0017,0.0023 0.0078,0.0074 0.0014,0.0152 -0.0006,0.0008 -0.0011,0.0009 -0.0024,0.0027l-0.0592 0.0886c-0.0016,0.0029 -0.0015,0.0028 -0.0035,0.0055 -0.0018,0.0025 -0.0025,0.0039 -0.0041,0.0062l-0.0187 0.0275c-0.0047,0.0078 -0.0065,0.0081 -0.0105,0.0152l-0.0189 0.0274c-0.0051,0.0078 -0.0049,0.0104 -0.0112,0.0145zm0.045 0.1735c0.0089,-0.0084 0.0213,-0.0268 0.029,-0.0378l0.0191 -0.0297c0.0031,-0.0044 0.0051,-0.0066 0.0081,-0.0112 0.002,-0.0032 0.0026,-0.0035 0.0042,-0.0061 0.0015,-0.0024 0.002,-0.0041 0.0037,-0.0066 0.0097,-0.0141 0.01,-0.0117 0.0195,-0.0281l0.0443 -0.0637c0.0028,-0.0041 0.0051,-0.0073 0.0078,-0.0115 0.0016,-0.0025 0.0019,-0.0031 0.0035,-0.0055l0.0316 -0.0455c0.0016,-0.0022 0.0026,-0.003 0.0046,-0.0057l0.016 -0.0238c0.0015,-0.0023 0.0023,-0.0026 0.0039,-0.0051 0.0016,-0.0024 0.0024,-0.0038 0.0041,-0.0062l0.0197 -0.0291c0.0018,-0.0028 0.0023,-0.0031 0.0042,-0.0061l0.0077 -0.0116c0.0022,-0.0028 0.0236,-0.033 0.0236,-0.0356 0,-0.005 -0.0045,-0.0096 -0.008,-0.0138 -0.0032,-0.0039 -0.0052,-0.0068 -0.0082,-0.0111l-0.0503 -0.0744c-0.019,-0.0234 -0.0333,-0.0504 -0.0518,-0.0742 -0.0018,-0.0023 -0.0024,-0.0032 -0.0042,-0.006l-0.0275 -0.0407c-0.0022,-0.0034 -0.0017,-0.0023 -0.0039,-0.0051 -0.002,-0.0026 -0.0023,-0.0037 -0.0041,-0.0062l-0.0242 -0.0336c-0.0027,-0.0044 -0.0054,-0.0082 -0.0084,-0.0122 -0.0023,-0.0031 -0.0016,-0.0028 -0.0035,-0.0055 -0.001,-0.0016 -0.001,-0.0012 -0.0022,-0.0029l-0.0176 -0.0261c-0.0017,-0.0027 -0.002,-0.0031 -0.0036,-0.0054l-0.0156 -0.023c-0.0029,-0.0038 -0.0015,-0.0028 -0.0036,-0.0066 -0.0012,-0.0022 -0.0022,-0.0032 -0.0037,-0.0053 -0.0104,-0.0149 -0.0111,-0.0208 -0.0315,-0.0108 -0.0047,0.0023 -0.0115,0.0021 -0.0161,0.0045 -0.0044,0.0022 -0.0025,0.0014 -0.0077,0.0025 -0.0069,0.0015 -0.0052,0.0032 -0.0149,0.0057 -0.0083,0.0021 -0.0134,0.0063 -0.021,0.0099 -0.0051,0.0024 -0.0079,0.0042 -0.0138,0.0068 -0.004,0.0018 -0.003,0.0019 -0.0066,0.0036 -0.0034,0.0016 -0.0038,0.0012 -0.007,0.0033l-0.0498 0.0376 -0.0808 0.094c-0.0008,0.0016 -0.0006,0.0017 -0.0017,0.0035 -0.0012,0.0021 -0.0007,0.001 -0.0021,0.0031 -0.0015,0.0023 -0.0004,0.0005 -0.0018,0.0033l-0.021 0.0407c-0.0015,0.0041 -0.0001,0.0041 -0.0021,0.0082 -0.0054,0.0116 -0.0038,0.0109 -0.0057,0.0149 -0.0033,0.0069 -0.0088,0.0236 -0.0097,0.0314 -0.0008,0.0069 -0.0033,0.0075 -0.0046,0.016 -0.0013,0.0086 -0,0.0099 -0.0025,0.0181 -0.0037,0.0122 -0.0036,0.0432 -0.0044,0.0574l0.0031 0.0482c0.0007,0.0034 0.0015,0.0044 0.0023,0.0079 0.0025,0.0102 0.0002,0.0142 0.0048,0.026 0.0017,0.0045 0.0009,0.0032 0.0015,0.0088 0.0007,0.0066 0.0038,0.0091 0.005,0.0156 0.0011,0.0062 0.0034,0.01 0.0051,0.0154 0.0008,0.0027 0.0009,0.0056 0.0019,0.0084 0.0016,0.0046 0.0019,0.0025 0.0036,0.0067 0.0017,0.0042 0.0003,0.0035 0.0025,0.0078 0.0024,0.0045 0.0019,0.0017 0.0034,0.0068l0.042 0.0712c0.0009,0.0013 0.0012,0.0021 0.002,0.0032l0.0214 0.0248c0.0038,0.0037 0.0066,0.0065 0.0103,0.0103l0.0505 0.0421c0.0016,0.0013 0.0012,0.0009 0.0027,0.0024 0.0091,0.0088 0.0367,0.0228 0.0482,0.0289 0.0033,0.0017 0.0046,0.0015 0.0074,0.0029 0.003,0.0014 0.0025,0.0019 0.0064,0.0039l0.0068 0.0035c0.0038,0.002 0.0034,0.0013 0.0075,0.0027 0.0032,0.0011 0.0046,0.0023 0.007,0.0032 0.0032,0.0013 0.0047,0.001 0.0081,0.0022 0.0027,0.001 0.0048,0.0029 0.0068,0.0035 0.0036,0.0012 0.0048,0.0003 0.0087,0.0016l0.0144 0.0062c0.0034,0.0016 0.0025,0.0021 0.0071,0.0032z"/>
   <path class="fil2" d="M1.5605 0.38l0 0.3946c0.0034,0.0059 0.0097,0.0044 0.0193,0.0044l0.0848 -0.0001c0.0225,-0.0019 0.0112,0.0001 0.0335,0.0001 0.0142,-0 0.0364,0.0022 0.0463,-0.0026 0.0032,-0.0138 0.0013,-0.1735 0.0013,-0.2018 0,-0.0184 -0.0013,-0.1995 0.0012,-0.202 0.0033,-0.0033 0.017,0.0001 0.0219,0.0002l0.1273 -0c0.0227,0.0001 0.0193,-0.0024 0.0193,-0.0321l-0.0001 -0.1259c-0.0012,-0.009 -0.008,-0.0079 -0.0179,-0.0078 -0.0101,0.0001 -0.0146,-0.0014 -0.0244,-0.0013l-0.0759 0c-0.0042,0 -0.0087,-0.0002 -0.0129,-0 -0.0062,0.0002 -0.0063,0.0014 -0.0115,0.0013l-0.1259 -0.001c-0.0133,0.0015 -0.0349,0.002 -0.0481,0.0002 -0.0099,-0.0014 -0.1358,-0.0003 -0.1526,-0.0004 -0.0096,-0 -0.0151,0.0012 -0.0231,0.0013 -0.0072,0.0001 -0.0191,-0.0008 -0.0257,0 -0.0091,0.0012 -0.0078,0.0079 -0.0078,0.0179 0.0003,0.0385 0.0017,0.0921 0.0008,0.1258 -0.0007,0.0244 -0.0011,0.022 0.0263,0.022l0.1273 0c0.0161,0 0.0167,-0.0057 0.0167,0.0072zm-0.4062 -0.173c-0.0007,0.0029 -0.0013,0.003 -0.0013,0.0064l0 0.5592c0,0.0088 0.0199,0.0044 0.0281,0.0053 0.018,0.002 0.1539,0.0017 0.157,-0.0015 0.0038,-0.008 0.0013,-0.0159 0.0013,-0.0257l0 -0.5296c0,-0.0086 0.0029,-0.0054 -0.0013,-0.0141 -0.0129,-0.003 -0.0695,-0.0012 -0.0874,-0.0013 -0.0085,-0 -0.0126,0.0009 -0.0193,0.0013 -0.0146,0.0008 -0.0717,-0.0021 -0.0771,-0z"/>
  </g>
 </g>
</svg>
